<svg xmlns="http://www.w3.org/2000/svg" viewBox="0 0 176.6 305.66"><g id="Calque_2" data-name="Calque 2"><g id="Calque_1-2" data-name="Calque 1"><path d="M1.34,38.3c.1-1.56,1-2.53,1.15-3.26.27-1.64,1-6.95,1.38-10a10.58,10.58,0,0,0,0-3.37,4.5,4.5,0,0,1,1.06-4.24h0c2.74-2.52,1-7.78,2.25-9h0C8,7.72,24,1.09,25.87.33a5.4,5.4,0,0,1,7.3,4.52c.08.83.25,3.68.27,4.5.28,11.36,13.59,41.79,14.12,43,2.38,5.47-.19,8.53-2.31,11h0c-.45.83-1.16,1.55-.94,2.6.12.41,45.7,101.56,46,102.1.93,1.67,1.81,1,2.13,1,1.13-.65,21.08-12.77,23.31-14.19,7.78-5,14.57.24,12.87,13.88h0c-.23,2.49-1.54,14.14-1.65,15.51-1.13,14.63-.89,17,6.25,23.88,1.37,1.33,34.32,32.08,36.5,34.21,13.55,11.93,5.91,31.55-12.93,27.74-3.17-.61-22.7-4.86-25.61-5.53-6.87-1.6-11.54-3.31-18.7,7.94-1.3,2.05-7.07,11-12.17,18.92-7.06,11-20.35,16.62-33,13.36-7.8-2-14.23-7.19-13.37-19.06,0-.32,2-30.75,2.71-41.75.64-10.5-2.53-16.31-6.19-20.64-2.17-2.56-23.75-25.24-24.92-26.45-7.91-8.18-1.5-26.53,12-23.27l14.82,3.37c2.82.86,3.2-.74,2.14-3.58C53.68,170.92,25.67,99,17.79,81a8.19,8.19,0,0,0-5.56-4.66C7.88,75.23,1.07,72.25,0,63c0-.2,0-.41,0-.62,0-6.83,2-18.74,2-20.45C1.94,41.18,1.24,39.83,1.34,38.3Z"/></g></g></svg>