<svg xmlns="http://www.w3.org/2000/svg" viewBox="0 0 307.72 196.82"><g id="Calque_2" data-name="Calque 2"><g id="Calque_1-2" data-name="Calque 1"><path d="M304.68,115.93c-2.61-16.84-24.6-90.41-35.21-101.72-1.31-1.4-2.62-6.92-8.15-10C251.61-1.14,241.12-.34,231.79,1c-5.22.72-8.27,1.86-10.53,5-1.79,2.51-8.4,2.42-8.4,2.42h-118S88.25,8.48,86.45,6c-2.25-3.15-5.3-4.29-10.53-5C66.6-.34,56.11-1.14,46.4,4.23c-5.54,3.06-6.84,8.58-8.16,10C27.64,25.52,5.64,99.09,3,115.93a180.33,180.33,0,0,0-3,30.54c-.58,54.87,52.86,70.94,73.79,17.64,4.8-12.21,5.54-14.32,10.18-26.51,2.6-6.81,3.92-5.86,10.54-3.09,8.61,3.61,18.66,3.58,28.92-2.38,1.75-1,4.63-3.41,6.66-3.4l23.76,0h0l23.76,0c2,0,4.9,2.38,6.66,3.4,10.26,6,20.31,6,28.91,2.38,6.63-2.77,8-3.72,10.54,3.09,4.65,12.19,5.39,14.3,10.18,26.51,20.94,53.3,74.38,37.23,73.79-17.64A180.31,180.31,0,0,0,304.68,115.93Z"/></g></g></svg>