<svg xmlns="http://www.w3.org/2000/svg" viewBox="0 0 1420.52 737.04"><g id="Calque_2" data-name="Calque 2"><g id="Calque_1-2" data-name="Calque 1"><path d="M1415.05,167.67,1044.27,325.48a7.12,7.12,0,0,1-4.62.33L998.35,315a7.17,7.17,0,0,0-8.93,6.13L972.28,475.32a7.17,7.17,0,0,1-4,5.64l-17.2,8.37a7.16,7.16,0,0,0-3.46,3.67l-1.31,3.13a7.14,7.14,0,0,0,1.68,8l6.85,6.47a7.14,7.14,0,0,1,2.13,3.92l1.93,10.62a7.09,7.09,0,0,1-.53,4.26l-1.94,4.23a7.12,7.12,0,0,1-2.66,3.06l-1.23.78a6.74,6.74,0,0,0-1.31,1.07l-7.7,8a7.05,7.05,0,0,0-1,1.39L933,564.23a7.16,7.16,0,0,1-4.44,3.35l-7.27,1.84a7.15,7.15,0,0,1-8.46-4.42l-3.25-8.66a7.15,7.15,0,0,0-4.75-4.37l-9.13-2.59a7.17,7.17,0,0,0-8.83,4.92l-5.22,18.22a7.17,7.17,0,0,1-4.78,4.86L845,587.18a7.14,7.14,0,0,1-3.89.09l-19.68-5.07a7.14,7.14,0,0,1-3.37-2L784,544.83l-.32-.31L736.2,501a7.25,7.25,0,0,1-1.53-2l-29-56.08a7.15,7.15,0,0,0-12-1.17L662.59,481a7.3,7.3,0,0,1-2.77,2.12L73.38,736.45a7.15,7.15,0,0,1-9.64-4.36L.35,537a7.17,7.17,0,0,1,4.3-8.92L615.86,299.26a7.22,7.22,0,0,1,4.57-.16l68.67,20.61a7.16,7.16,0,0,0,9.21-6.9l-.62-123.45a7.16,7.16,0,0,1,4.44-6.65L861.86,117a7.12,7.12,0,0,1,6.88.79c4.18,3,11.45,8.24,15.7,11.66.11.1.23.19.35.28,8.81,6.24,17.87,12.11,26.47,18.63,5.55,3.94,16.4,12.23,24.13,16.66a6.22,6.22,0,0,1,.54.35c7.91,5.61,21.85,15.31,27.35,19.14a7.2,7.2,0,0,0,5.14,1.2l16.1-2.4a7.23,7.23,0,0,0,4.59-2.68l25.47-32.7a7.13,7.13,0,0,1,3.16-2.31L1410.89.45a7.15,7.15,0,0,1,9.63,6.76l-1.12,153.93A7.15,7.15,0,0,1,1415.05,167.67Z"/></g></g></svg>