<svg xmlns="http://www.w3.org/2000/svg" viewBox="0 0 375.09 254.25"><g id="Calque_2" data-name="Calque 2"><g id="Calque_1-2" data-name="Calque 1"><path d="M281,248.11l-2.84-5.83a4.27,4.27,0,0,0-3.84-2.4h-50a4.27,4.27,0,0,1-4.27-4.26h0a4.27,4.27,0,0,1,4.27-4.27H370.83a4.27,4.27,0,0,0,4.26-4.27V4.27A4.27,4.27,0,0,0,370.83,0H4.27A4.27,4.27,0,0,0,0,4.27V227.08a4.27,4.27,0,0,0,4.27,4.27h147a4.27,4.27,0,0,1,4.26,4.27h0a4.26,4.26,0,0,1-4.26,4.26H102.27a4.26,4.26,0,0,0-4,2.87l-2,5.83a4.27,4.27,0,0,0,4,5.67H277.11A4.27,4.27,0,0,0,281,248.11Z"/></g></g></svg>